<svg width="407" height="407" viewBox="0 0 407 407" fill="none" xmlns="http://www.w3.org/2000/svg">
<circle cx="203.5" cy="203.5" r="201.5" fill="#F5F5F5" stroke="#747474" stroke-width="4" stroke-linecap="round" stroke-dasharray="25 25"/>
<path fill-rule="evenodd" clip-rule="evenodd" d="M184.445 278.811C179.829 278.811 175.711 281.711 174.156 286.056L159.148 327.989H138.429C129.375 327.989 122.036 335.329 122.036 344.382C122.036 353.435 129.375 360.775 138.429 360.775H269.571C278.625 360.775 285.964 353.435 285.964 344.382C285.964 335.329 278.625 327.989 269.571 327.989H248.855L233.848 286.056C232.292 281.711 228.174 278.811 223.558 278.811H184.445Z" fill="#454546"/>
<path fill-rule="evenodd" clip-rule="evenodd" d="M84.1888 74.7695C66.6033 74.7695 52.3474 89.0255 52.3474 106.611V266.359C52.3474 283.945 66.6033 298.2 84.1888 298.2H323.81C341.396 298.2 355.651 283.945 355.651 266.359V107.555C355.651 89.4482 340.972 74.7695 322.866 74.7695H84.1888Z" fill="#CDE8E5"/>
<path fill-rule="evenodd" clip-rule="evenodd" d="M235.944 144.152C238.807 135.564 234.166 126.28 225.577 123.417C216.988 120.554 207.704 125.196 204.841 133.785L172.056 232.142C169.192 240.731 173.834 250.014 182.423 252.877C191.012 255.74 200.296 251.098 203.159 242.509L235.944 144.152ZM161.803 150.157C167.696 157.031 166.899 167.38 160.025 173.272L136.502 193.435L154.387 208.34C161.343 214.135 162.282 224.472 156.486 231.427C150.69 238.382 140.354 239.322 133.398 233.526L100.613 206.205C96.9059 203.116 94.7482 198.55 94.7147 193.725C94.6813 188.9 96.7752 184.305 100.439 181.165L138.689 148.379C145.563 142.487 155.912 143.284 161.803 150.157ZM251.514 155.796C257.31 148.84 267.646 147.901 274.601 153.697L307.386 181.018C311.093 184.107 313.251 188.672 313.286 193.498C313.318 198.323 311.225 202.917 307.561 206.058L269.311 238.844C262.437 244.735 252.088 243.939 246.197 237.066C240.305 230.191 241.101 219.843 247.975 213.951L271.497 193.788L253.613 178.883C246.658 173.087 245.718 162.751 251.514 155.796Z" fill="#454546"/>
</svg>