<svg width="296" height="296" viewBox="0 0 296 296" fill="none" xmlns="http://www.w3.org/2000/svg">
<circle cx="148" cy="148" r="146" fill="#F5F5F5" stroke="#747474" stroke-width="4" stroke-linecap="round" stroke-dasharray="25 25"/>
<path fill-rule="evenodd" clip-rule="evenodd" d="M58.3749 58.3765C63.6587 53.0921 70.8254 50.123 78.2985 50.123H218.409C225.883 50.123 233.05 53.0921 238.334 58.3765C243.618 63.661 246.586 70.8279 246.586 78.3007V151.768L225.884 131.063C222.549 127.728 218.024 125.855 213.309 125.858C208.592 125.86 204.07 127.737 200.738 131.076L135.214 196.749C132.495 199.474 130.734 203.008 130.197 206.821L126.015 236.52C125.524 240.004 126.083 243.505 127.553 246.607H78.2985C70.8254 246.607 63.6587 243.637 58.3749 238.353C53.0911 233.069 50.1229 225.902 50.1229 218.429V78.3007C50.1229 70.8279 53.0911 63.661 58.3749 58.3765ZM143.611 238.997L173.307 234.953L161.906 236.507L143.611 238.997Z" fill="#CDE8E5"/>
<path d="M175.92 127.709C187.525 127.709 196.933 118.302 196.933 106.696C196.933 95.0909 187.525 85.6831 175.92 85.6831C164.315 85.6831 154.907 95.0909 154.907 106.696C154.907 118.302 164.315 127.709 175.92 127.709Z" fill="#111111"/>
<path fill-rule="evenodd" clip-rule="evenodd" d="M158.348 173.831C154.275 170.637 150.605 167.879 147.933 165.936C126.075 154.704 101.29 148.365 75.0234 148.365C66.5531 148.365 58.2368 149.024 50.1229 150.294V218.429C50.1229 225.902 53.0911 233.068 58.3749 238.353C63.6587 243.637 70.8254 246.607 78.2985 246.607H127.324C126 243.611 125.511 240.268 125.98 236.94L130.182 207.102C130.719 203.289 132.48 199.754 135.2 197.029L158.348 173.831Z" fill="#111111"/>
<path d="M239.399 169.354L173.417 235.336L143.579 239.398L147.781 209.56L213.623 143.578L239.399 169.354Z" fill="#111111"/>
</svg>