<?xml version="1.0" encoding="UTF-8" standalone="no"?>
<svg
   xmlns:dc="http://purl.org/dc/elements/1.1/"
   xmlns:cc="http://creativecommons.org/ns#"
   xmlns:rdf="http://www.w3.org/1999/02/22-rdf-syntax-ns#"
   xmlns:svg="http://www.w3.org/2000/svg"
   xmlns="http://www.w3.org/2000/svg"
   xmlns:sodipodi="http://sodipodi.sourceforge.net/DTD/sodipodi-0.dtd"
   xmlns:inkscape="http://www.inkscape.org/namespaces/inkscape"
   version="1.1"
   id="Layer_1"
   x="0px"
   y="0px"
   width="1000"
   height="366.52597"
   viewBox="0 0 999.99997 366.52591"
   enable-background="new 0 0 1000 167.898"
   xml:space="preserve"
   sodipodi:docname="Detik Network.svg"
   inkscape:version="1.0.2 (e86c870879, 2021-01-15)"><metadata
   id="metadata41"><rdf:RDF><cc:Work
       rdf:about=""><dc:format>image/svg+xml</dc:format><dc:type
         rdf:resource="http://purl.org/dc/dcmitype/StillImage" /><dc:title></dc:title></cc:Work></rdf:RDF></metadata><defs
   id="defs39">
	
	
	
	
	
	
	
	
	
	
	
	
	
	
	
	
</defs><sodipodi:namedview
   pagecolor="#ffffff"
   bordercolor="#666666"
   borderopacity="1"
   objecttolerance="10"
   gridtolerance="10"
   guidetolerance="10"
   inkscape:pageopacity="0"
   inkscape:pageshadow="2"
   inkscape:window-width="1366"
   inkscape:window-height="705"
   id="namedview37"
   showgrid="false"
   inkscape:zoom="0.5"
   inkscape:cx="674.15"
   inkscape:cy="298.43644"
   inkscape:window-x="-8"
   inkscape:window-y="-8"
   inkscape:window-maximized="1"
   inkscape:current-layer="Layer_1"
   inkscape:document-rotation="0"
   showguides="false" />

<g
   id="g997"><g
     id="g1371"
     style="display:inline"
     transform="matrix(1.6384156,0,0,1.6384156,335.05056,-79.934442)"><path
       style="display:inline;opacity:1;fill:#24b24b;fill-opacity:1;fill-rule:evenodd;stroke-width:29.5162;stroke-linecap:square;stroke-linejoin:round;paint-order:stroke fill markers"
       d="m 1537.2832,319.3125 -48.3418,105.17969 a 49.351255,49.351255 0 0 0 -47.2852,19.32422 49.351255,49.351255 0 0 0 10.1915,69.04492 49.351255,49.351255 0 0 0 69.0449,-10.19141 49.351255,49.351255 0 0 0 -8.6172,-67.82617 l 47.7383,-103.86328 c -8.2195,-2.70059 -15.8678,-6.67239 -22.7305,-11.66797 z"
       transform="matrix(0.26458333,0,0,0.26458333,-203.55342,48.750454)"
       id="path1362" /><path
       style="display:inline;opacity:1;fill:#2289ca;fill-opacity:1;fill-rule:evenodd;stroke-width:29.5162;stroke-linecap:square;stroke-linejoin:round;paint-order:stroke fill markers"
       d="m 1643.3164,311.33203 c -6.1803,6.08533 -13.3114,11.19956 -21.1445,15.10938 l 105.3379,131.70898 a 49.351255,49.351255 0 0 0 -1.9473,61.30859 49.351255,49.351255 0 0 0 69.0449,10.19141 49.351255,49.351255 0 0 0 10.1914,-69.04492 49.351255,49.351255 0 0 0 -55.8379,-17.18164 z"
       transform="matrix(0.26458333,0,0,0.26458333,-203.55342,48.750454)"
       id="path1360" /><path
       style="display:inline;opacity:1;fill:#6361ab;fill-opacity:1;fill-rule:evenodd;stroke-width:29.5162;stroke-linecap:square;stroke-linejoin:round;paint-order:stroke fill markers"
       d="m 1870.4629,185.42969 a 49.878044,49.878044 0 0 0 -48.8223,39.67187 l -156.6718,5.60742 c 1.9491,7.00415 2.996,14.37588 2.996,21.98438 0,1.30086 -0.033,2.59437 -0.094,3.88086 l 155.2519,-5.5586 a 49.878044,49.878044 0 0 0 47.3399,34.16993 49.878044,49.878044 0 0 0 49.8789,-49.87696 49.878044,49.878044 0 0 0 -49.8789,-49.8789 z"
       transform="matrix(0.26458333,0,0,0.26458333,-203.55342,48.750454)"
       id="path1358" /><path
       style="display:inline;opacity:1;fill:#fcb614;fill-opacity:1;fill-rule:evenodd;stroke-width:29.5162;stroke-linecap:square;stroke-linejoin:round;paint-order:stroke fill markers"
       d="m 1354.2773,173.90039 a 49.351255,49.351255 0 0 0 -48.8964,42.22266 49.351255,49.351255 0 0 0 41.705,55.96093 49.351255,49.351255 0 0 0 52.8321,-30.21289 l 103.3672,14.02735 c -0.041,-1.06394 -0.068,-2.13143 -0.068,-3.20508 0,-7.25628 0.9519,-14.29747 2.7305,-21.00977 l -102.6914,-13.9375 a 49.351255,49.351255 0 0 0 -41.9141,-43.32812 49.351255,49.351255 0 0 0 -7.0645,-0.51758 z"
       transform="matrix(0.26458333,0,0,0.26458333,-203.55342,48.750454)"
       id="path1356" /><path
       style="display:inline;opacity:1;fill:#d01f44;fill-opacity:1;fill-rule:evenodd;stroke-width:29.5162;stroke-linecap:square;stroke-linejoin:round;paint-order:stroke fill markers"
       d="m 1668.7832,22.828125 a 49.351255,49.351255 0 0 0 -39.8379,19.925781 49.351255,49.351255 0 0 0 7.1777,66.613284 l -29.3007,63.75 c 8.3691,2.2423 16.2101,5.7899 23.3164,10.38672 l 28.9101,-62.90039 a 49.351255,49.351255 0 0 0 49.1348,-18.99805 49.351255,49.351255 0 0 0 -10.1934,-69.044923 49.351255,49.351255 0 0 0 -29.207,-9.732422 z"
       transform="matrix(0.26458333,0,0,0.26458333,-203.55342,48.750454)"
       id="path1354" /><path
       style="display:inline;opacity:1;fill:#f26f26;fill-opacity:1;fill-rule:evenodd;stroke-width:29.5162;stroke-linecap:square;stroke-linejoin:round;paint-order:stroke fill markers"
       d="m 1459.7168,0.140625 a 39.716556,39.716556 0 0 0 -23.7461,7.8320312 39.716556,39.716556 0 0 0 -8.2031,55.5664058 39.716556,39.716556 0 0 0 42.1211,14.691407 l 70.5234,105.679691 c 6.5152,-4.29879 13.6625,-7.70998 21.2793,-10.03125 L 1489.6348,65.902344 a 39.716556,39.716556 0 0 0 1.9004,-49.726563 39.716556,39.716556 0 0 0 -31.8184,-16.035156 z"
       transform="matrix(0.26458333,0,0,0.26458333,-203.55342,48.750454)"
       id="path847" /><path
       id="rect849-5"
       style="display:inline;opacity:1;fill:#204499;fill-opacity:1;fill-rule:evenodd;stroke-width:20.447;stroke-linecap:square;stroke-linejoin:round;paint-order:stroke fill markers"
       d="m 1744.9961,118.80664 c -20.6795,-5.5e-4 -37.444,16.76387 -37.4434,37.44336 10e-5,3.02604 0.3677,6.04087 1.0938,8.97852 l -67.4024,39.41796 c -13.2916,-15.20068 -32.8132,-24.81445 -54.5918,-24.81445 -22.5307,0 -42.6614,10.27559 -55.9609,26.39649 l -37.4062,-22.43555 c 1.0425,-3.49551 1.5722,-7.12383 1.5722,-10.77149 3e-4,-20.81752 -16.8758,-37.69386 -37.6933,-37.69336 -20.8168,5.2e-4 -37.6914,16.87658 -37.6914,37.69336 0,20.81678 16.8746,37.69246 37.6914,37.69336 9.8745,1.8e-4 19.3547,-3.87454 26.4023,-10.79101 l 37.1406,22.27539 c -4.204,9.18196 -6.5644,19.3835 -6.5644,30.14258 0,7.14909 1.0508,14.04997 2.9785,20.57422 l -72.8613,42.55859 c -12.0039,-10.67278 -30.3658,-9.68269 -41.1504,2.2207 -10.8566,11.98284 -9.9417,30.4987 2.041,41.35547 11.9826,10.85669 30.4966,9.94532 41.3535,-2.03711 5.8892,-6.49969 8.5529,-15.29766 7.2598,-23.97265 l 71.6699,-41.86133 c 10.3755,16.3204 27.0787,28.22257 46.6719,32.21289 l -1.3282,33.12695 c -16.6934,2.97277 -28.1558,18.47064 -26.1093,35.30274 2.1292,17.51226 18.0521,29.98232 35.5644,27.85351 17.5122,-2.12879 29.9837,-18.05027 27.8555,-35.5625 -1.428,-11.75064 -9.2378,-21.74787 -20.293,-25.97851 l 1.336,-33.34375 c 23.1041,-0.77748 43.4598,-12.35302 56.1875,-29.85157 l 60.9277,36.53907 c -3.0001,13.05717 1.3037,26.71548 11.248,35.69336 15.1444,13.6727 38.5054,12.47875 52.1778,-2.66602 13.6723,-15.14475 12.4789,-38.50554 -2.666,-52.17774 -14.934,-13.48156 -37.9101,-12.5343 -51.6836,2.13086 l -60.836,-36.48437 c 3.014,-7.97132 4.6778,-16.60603 4.6778,-25.63281 0,-11.11318 -2.5082,-21.63718 -6.9766,-31.05078 l 66.1914,-38.70899 c 7.0326,7.1096 16.617,11.11138 26.6172,11.11133 20.6787,-1.1e-4 37.4414,-16.76465 37.4414,-37.44336 0,-20.67871 -16.7627,-37.44281 -37.4414,-37.44336 z m 0.7656,9.61524 a 29.247868,29.247868 0 0 1 29.2481,29.24804 29.247868,29.247868 0 0 1 -29.2207,29.24805 29.247868,29.247868 0 0 1 -0.027,0 29.247868,29.247868 0 0 1 -28.0644,-21.02149 25.425353,25.425353 0 0 0 23.7324,16.3086 25.425353,25.425353 0 0 0 25.4258,-25.42578 25.425353,25.425353 0 0 0 -25.4258,-25.42578 25.425353,25.425353 0 0 0 -18.2383,7.71289 29.247868,29.247868 0 0 1 22.5703,-10.64453 z m -287.7871,18.35156 a 27.886425,27.886425 0 0 1 0.2598,0 27.886425,27.886425 0 0 1 0.025,0 27.886425,27.886425 0 0 1 26.7597,20.04297 24.241843,24.241843 0 0 0 -22.6289,-15.55079 24.241843,24.241843 0 0 0 -24.2422,24.24219 24.241843,24.241843 0 0 0 24.2422,24.24219 24.241843,24.241843 0 0 0 17.3907,-7.35352 27.886425,27.886425 0 0 1 -21.5215,10.1504 27.886425,27.886425 0 0 1 -27.8867,-27.88672 27.886425,27.886425 0 0 1 27.5976,-27.88672 z m 283.8652,163.19726 a 29.386365,29.386365 0 0 1 0.4004,0 v 0 a 29.386365,29.386365 0 0 1 19.5371,7.57227 29.386365,29.386365 0 0 1 0.02,0.0195 29.386365,29.386365 0 0 1 2.0996,41.48633 29.386365,29.386365 0 0 1 -41.5039,2.11914 29.386365,29.386365 0 0 1 -9.666,-23.13477 25.54575,25.54575 0 0 0 8.4102,18.03125 25.54575,25.54575 0 0 0 36.0801,-1.84375 25.54575,25.54575 0 0 0 -1.8438,-36.08008 25.54575,25.54575 0 0 0 -28.6816,-3.8164 29.386365,29.386365 0 0 1 15.1464,-4.35352 z m -317.0234,4.64844 a 23.152901,23.152901 0 0 1 9.9941,2.31641 20.12696,20.12696 0 0 0 -22.1816,5.2539 20.12696,20.12696 0 0 0 1.4004,28.42969 20.12696,20.12696 0 0 0 28.4297,-1.40234 20.12696,20.12696 0 0 0 5.1699,-14.79883 23.152901,23.152901 0 0 1 -5.7519,18.90039 23.152901,23.152901 0 0 1 -32.7032,1.61133 23.152901,23.152901 0 0 1 -1.6269,-32.6875 v -0.002 a 23.152901,23.152901 0 0 1 0.014,-0.0156 23.152901,23.152901 0 0 1 17.2559,-7.60547 z m 140.6133,52.47656 v 0 a 24.74217,24.74217 0 0 0 -0.018,0.008 21.508522,21.508522 0 0 1 0.014,-0.008 z m -0.018,0.01 a 21.508522,21.508522 0 0 0 -11.2559,21.58398 21.508522,21.508522 0 0 0 23.9473,18.75782 21.508522,21.508522 0 0 0 18.7559,-23.94727 21.508522,21.508522 0 0 0 -8.3379,-14.5293 24.74217,24.74217 0 0 1 11.2441,17.86914 24.74217,24.74217 0 0 1 -21.5781,27.54688 24.74217,24.74217 0 0 1 -27.543,-21.55469 24.74217,24.74217 0 0 1 0,-0.0234 24.74217,24.74217 0 0 1 14.7676,-25.70312 z"
       transform="matrix(0.26458333,0,0,0.26458333,-203.55342,48.750454)" /></g><g
     id="g974"
     transform="matrix(1.0014451,0,0,1.0014451,0,-1.7250445e-6)"><path
       d="m 407.73116,357.64801 v -81.34 q 0,-2.548 2.156,-4.116 2.352,-1.568 5.88,-1.568 2.94,0 5.096,1.764 2.352,1.568 2.352,3.92 v 8.036 q 3.136,-6.272 9.996,-10.584 7.056,-4.312 16.268,-4.312 13.916,0 24.108,11.172 10.388,10.976 10.388,26.46 v 50.568 q 0,2.744 -2.548,4.312 -2.352,1.568 -5.684,1.568 -3.136,0 -5.684,-1.568 -2.352,-1.568 -2.352,-4.312 v -50.568 q 0,-8.82 -6.664,-15.876 -6.664,-7.056 -15.68,-7.056 -8.428,0 -14.896,6.468 -6.468,6.272 -6.468,16.464 v 50.568 q 0,2.156 -2.548,4.116 -2.548,1.764 -5.684,1.764 -3.332,0 -5.684,-1.764 -2.352,-1.764 -2.352,-4.116 z"
       style="font-style:normal;font-variant:normal;font-weight:500;font-stretch:normal;font-size:196px;font-family:Dosis;-inkscape-font-specification:'Dosis Medium';letter-spacing:-2.41614px;fill:#2289ca;fill-opacity:1;stroke-width:3.33281"
       id="path900" /><path
       d="m 497.575,327.07201 v -20.58 q 0,-15.092 11.368,-26.068 11.564,-10.976 27.636,-10.976 15.288,0 26.46,10.388 11.172,10.192 11.172,25.676 0,5.684 -1.372,9.212 -1.372,3.332 -4.312,4.9 -2.744,1.372 -5.292,1.764 -2.352,0.392 -6.468,0.392 h -42.924 v 5.88 q 0,10.78 7.644,17.248 7.84,6.468 20.188,6.468 6.468,0 11.172,-1.96 4.9,-1.96 7.84,-3.724 2.94,-1.96 4.704,-1.96 2.744,0 4.704,2.548 1.96,2.352 1.96,4.9 0,4.508 -9.016,9.212 -8.82,4.704 -21.952,4.704 -19.208,0 -31.36,-10.388 -12.152,-10.584 -12.152,-27.636 z m 16.268,-16.268 h 36.26 q 5.096,0 6.86,-1.176 1.764,-1.372 1.764,-5.096 0,-8.82 -6.468,-15.484 -6.468,-6.664 -15.876,-6.664 -9.212,0 -15.876,6.272 -6.664,6.076 -6.664,15.092 z"
       style="font-style:normal;font-variant:normal;font-weight:500;font-stretch:normal;font-size:196px;font-family:Dosis;-inkscape-font-specification:'Dosis Medium';letter-spacing:-2.41614px;fill:#2289ca;fill-opacity:1;stroke-width:3.33281"
       id="path902" /><path
       d="m 585.134,333.93201 v -100.94 q 0,-2.352 2.548,-3.92 2.548,-1.764 5.488,-1.764 3.136,0 5.684,1.764 2.548,1.568 2.548,3.92 v 37.632 h 24.696 q 2.156,0 3.528,1.96 1.372,1.96 1.372,4.508 0,2.548 -1.372,4.508 -1.372,1.764 -3.528,1.764 h -24.696 v 50.568 q 0,8.428 3.528,11.956 3.724,3.332 12.74,3.332 h 6.076 q 3.332,0 5.096,2.156 1.96,1.96 1.96,4.9 0,2.94 -1.96,5.096 -1.96,2.156 -5.096,2.156 h -6.076 q -32.536,0 -32.536,-29.596 z"
       style="font-style:normal;font-variant:normal;font-weight:500;font-stretch:normal;font-size:196px;font-family:Dosis;-inkscape-font-specification:'Dosis Medium';letter-spacing:-2.41614px;fill:#2289ca;fill-opacity:1;stroke-width:3.33281"
       id="path904" /><path
       d="m 636.14999,277.28801 q 0,-2.94 3.136,-4.9 3.332,-2.156 6.86,-2.156 4.116,0 5.292,3.136 l 23.716,65.856 18.424,-59.388 q 1.372,-3.92 6.076,-3.92 4.9,0 6.272,3.92 l 18.032,59.976 23.912,-66.444 q 0.98,-3.136 5.096,-3.136 3.528,0 6.86,2.156 3.332,1.96 3.332,4.9 0,1.568 -0.784,3.136 l -30.576,81.34 q -1.372,3.528 -6.468,3.528 -5.292,0 -6.664,-3.528 l -19.012,-57.624 -18.62,57.036 q -1.372,4.116 -7.056,4.116 -5.096,0 -6.664,-4.116 l -30.38,-80.752 q -0.784,-2.352 -0.784,-3.136 z"
       style="font-style:normal;font-variant:normal;font-weight:500;font-stretch:normal;font-size:196px;font-family:Dosis;-inkscape-font-specification:'Dosis Medium';letter-spacing:-2.41614px;fill:#2289ca;fill-opacity:1;stroke-width:3.33281"
       id="path906" /><path
       d="m 191.72993,324.02315 c 1.76361,-28.0414 -13.22707,-54.14282 -44.26661,-54.14282 -27.68867,0 -46.5593,20.81059 -46.5593,48.14655 0,28.21776 17.81246,47.97019 46.5593,47.97019 20.63424,0 35.62492,-9.17077 42.67936,-30.68681 h -22.04512 c -1.58725,5.64355 -9.69986,11.81618 -19.75243,11.81618 -13.93252,0 -21.6924,-7.2308 -22.39785,-23.10329 z m -65.78265,-15.87249 c 0.35272,-7.05444 4.93811,-19.39971 20.8106,-19.39971 12.16891,0 17.6361,6.70172 19.92879,19.39971 z"
       style="font-style:normal;font-variant:normal;font-weight:bold;font-stretch:normal;font-size:176.361px;font-family:'Helvetica Neue LT Std';-inkscape-font-specification:'Helvetica Neue LT Std Bold';letter-spacing:-2.41614px;fill:#204499;fill-opacity:1;stroke-width:3.33281"
       id="path892" /><path
       d="m 235.87298,245.01343 h -25.04326 v 27.33595 h -15.16705 v 16.7543 h 15.16705 v 53.7901 c 0,18.16518 13.40344,21.6924 28.74684,21.6924 4.93811,0 10.4053,-0.17636 14.63796,-0.8818 v -19.57607 c -2.64541,0.52908 -5.11446,0.70544 -7.75988,0.70544 -8.46533,0 -10.58166,-2.11633 -10.58166,-10.58166 v -45.14841 h 18.34154 v -16.7543 h -18.34154 z"
       style="font-style:normal;font-variant:normal;font-weight:bold;font-stretch:normal;font-size:176.361px;font-family:'Helvetica Neue LT Std';-inkscape-font-specification:'Helvetica Neue LT Std Bold';letter-spacing:-2.41614px;fill:#204499;fill-opacity:1;stroke-width:3.33281"
       id="path894" /><path
       id="path896"
       style="font-style:normal;font-variant:normal;font-weight:bold;font-stretch:normal;font-size:176.361px;font-family:'Helvetica Neue LT Std';-inkscape-font-specification:'Helvetica Neue LT Std Bold';letter-spacing:-2.41614px;fill:#204499;fill-opacity:1;stroke-width:3.33281"
       d="m 280.0957,235.94803 c -7.65918,0 -13.82422,6.16699 -13.82422,13.82617 0,7.65918 6.16504,13.82617 13.82422,13.82617 7.65919,0 13.82618,-6.16699 13.82618,-13.82617 0,-7.65918 -6.16699,-13.82617 -13.82618,-13.82617 z m -12.40039,36.40039 v 91.17969 h 25.04492 v -91.17969 z" /><path
       d="m 309.16841,363.52801 h 25.04326 v -31.39225 l 9.69985,-9.34713 25.04326,40.73938 h 30.33409 l -38.27033,-57.67004 34.39039,-33.50859 h -29.62865 l -31.56861,32.80315 v -67.54626 h -25.04326 z"
       style="font-style:normal;font-variant:normal;font-weight:bold;font-stretch:normal;font-size:176.361px;font-family:'Helvetica Neue LT Std';-inkscape-font-specification:'Helvetica Neue LT Std Bold';letter-spacing:-2.41614px;fill:#204499;fill-opacity:1;stroke-width:3.33281"
       id="path898" /><path
       id="rect934"
       style="display:inline;fill:#204499;fill-opacity:1;fill-rule:evenodd;stroke-width:1.20189;paint-order:stroke fill markers"
       d="m 65.316406,237.60623 v 41.52344 c -6.963334,-5.53411 -15.235107,-8.49992 -23.708984,-8.5 C 18.628234,270.62945 2.4100002e-6,291.97839 0,318.31326 c -2.4099998e-6,26.33487 18.62823,47.68382 41.607422,47.6836 8.473877,-8e-5 16.74565,-2.96589 23.708984,-8.5 v 6.03125 H 91.25 V 237.60623 Z m -22.041015,54.83472 c 12.688898,0 20.521609,12.04295 20.521609,26.013 0,13.97005 -6.84118,26.909 -20.521609,26.909 -13.680429,0 -21.139391,-13.02099 -21.139391,-26.74305 0,-13.72206 8.450493,-26.17895 21.139391,-26.17895 z"
       sodipodi:nodetypes="ccssscccccsssss" /><path
       d="m 767.226,327.07201 v -19.992 q 0,-15.092 11.368,-26.264 11.564,-11.368 27.244,-11.368 15.68,0 27.244,11.172 11.564,11.172 11.564,26.46 v 19.992 q 0,14.896 -11.76,26.46 -11.564,11.564 -27.048,11.564 -15.484,0 -27.048,-11.368 -11.564,-11.564 -11.564,-26.656 z m 16.268,0 q 0,9.212 6.664,16.268 6.664,7.056 15.68,7.056 9.212,0 15.876,-7.056 6.664,-7.252 6.664,-16.268 v -19.992 q 0,-8.82 -6.664,-15.876 -6.664,-7.056 -15.876,-7.056 -9.212,0 -15.876,7.056 -6.468,7.056 -6.468,15.876 z"
       style="font-style:normal;font-variant:normal;font-weight:500;font-stretch:normal;font-size:196px;font-family:Dosis;-inkscape-font-specification:'Dosis Medium';letter-spacing:-2.41614px;fill:#2289ca;fill-opacity:1;stroke-width:3.33281"
       id="path908" /><path
       d="m 858.829,357.64801 v -81.34 q 0,-2.548 2.156,-4.116 2.352,-1.568 5.88,-1.568 3.136,0 5.292,1.568 2.156,1.568 2.156,4.116 v 9.212 q 3.528,-6.664 10.388,-11.368 6.86,-4.704 15.288,-4.704 h 6.664 q 2.548,0 4.312,2.352 1.96,2.156 1.96,5.096 0,2.94 -1.96,5.096 -1.764,2.156 -4.312,2.156 h -6.664 q -9.996,0 -17.444,8.036 -7.448,8.036 -7.448,20.776 v 44.688 q 0,2.156 -2.548,4.116 -2.352,1.764 -5.684,1.764 -3.332,0 -5.684,-1.764 -2.352,-1.764 -2.352,-4.116 z"
       style="font-style:normal;font-variant:normal;font-weight:500;font-stretch:normal;font-size:196px;font-family:Dosis;-inkscape-font-specification:'Dosis Medium';letter-spacing:-2.41614px;fill:#2289ca;fill-opacity:1;stroke-width:3.33281"
       id="path910" /><path
       d="m 921.333,357.64801 v -137.396 q 0,-2.548 2.156,-4.116 2.352,-1.568 5.88,-1.568 3.528,0 5.88,1.568 2.352,1.568 2.352,4.116 v 91.728 l 44.688,-40.376 q 1.76398,-1.372 3.52798,-1.372 2.94,0 5.488,2.352 2.744,2.352 2.744,5.292 0,2.352 -1.764,3.92 l -27.24398,24.108 32.53598,47.236 q 0.98,1.568 0.98,2.94 0,2.94 -2.94,5.684 -2.94,2.548 -6.076,2.548 -2.744,0 -4.508,-2.548 l -31.16398,-45.668 -16.268,14.504 v 27.048 q 0,2.156 -2.548,4.116 -2.352,1.764 -5.684,1.764 -3.332,0 -5.684,-1.764 -2.352,-1.764 -2.352,-4.116 z"
       style="font-style:normal;font-variant:normal;font-weight:500;font-stretch:normal;font-size:196px;font-family:Dosis;-inkscape-font-specification:'Dosis Medium';letter-spacing:-2.41614px;fill:#2289ca;fill-opacity:1;stroke-width:3.33281"
       id="path912" /></g></g></svg>
